<svg xmlns="http://www.w3.org/2000/svg" viewBox="0 0 1600 900" width="1600" height="900" preserveAspectRatio="xMidYMid slice">
  <defs>
    <linearGradient id="sky" x1="0" y1="0" x2="0" y2="1">
      <stop offset="0" stop-color="#100819"/>
      <stop offset=".55" stop-color="#1c0f2e"/>
      <stop offset="1" stop-color="#2a1638"/>
    </linearGradient>
    <radialGradient id="moon" cx=".5" cy=".5" r=".5">
      <stop offset="0" stop-color="#ffd88a" stop-opacity=".55"/>
      <stop offset="1" stop-color="#ffd88a" stop-opacity="0"/>
    </radialGradient>
    <radialGradient id="glow" cx=".5" cy=".5" r=".5">
      <stop offset="0" stop-color="#ff8c1a" stop-opacity=".55"/>
      <stop offset="1" stop-color="#ff8c1a" stop-opacity="0"/>
    </radialGradient>
  </defs>
  <rect width="1600" height="900" fill="url(#sky)"/>
  <circle cx="1180" cy="220" r="300" fill="url(#moon)"/>
  <circle cx="1180" cy="220" r="86" fill="#ffe7b0" opacity=".95"/>
  <g fill="#e8d5ff" opacity=".5">
    <circle cx="200" cy="120" r="2.2"/><circle cx="460" cy="90" r="1.8"/><circle cx="700" cy="180" r="2"/>
    <circle cx="900" cy="110" r="1.6"/><circle cx="1450" cy="140" r="2"/><circle cx="340" cy="280" r="1.6"/>
  </g>
  <g fill="#0d0715" opacity=".9">
    <path d="M300 140 q30 -26 60 0 q26 26 0 52 q-30 26 -60 0 q-26 -26 0 -52z"/>
    <path d="M520 250 q24 -20 48 0 q20 20 0 42 q-24 20 -48 0 q-20 -20 0 -42z"/>
    <path d="M860 120 q20 -18 40 0 q18 18 0 36 q-20 18 -40 0 q-18 -18 0 -36z"/>
  </g>
  <path d="M0 660 Q 240 600 480 655 T 960 650 T 1600 640 L1600 900 L0 900Z" fill="#150b21" opacity=".95"/>
  <g fill="#0a0512">
    <path d="M980 660 v-190 h34 v-42 h30 v42 h40 v-120 h34 v120 h40 v-42 h30 v42 h34 v190z"/>
  </g>
  <g fill="#ffb347" opacity=".9">
    <rect x="1016" y="516" width="16" height="22"/>
    <rect x="1096" y="470" width="16" height="22"/>
    <rect x="1150" y="540" width="16" height="22"/>
  </g>
  <g fill="#080410">
    <path d="M240 660 q-18 -90 22 -120 q-30 -70 30 -96 q10 60 56 70 q-40 40 -18 146z"/>
    <path d="M700 660 q-14 -70 18 -96 q-24 -56 24 -76 q8 48 44 56 q-32 32 -14 116z"/>
  </g>
  <circle cx="470" cy="740" r="150" fill="url(#glow)"/>
  <g>
    <path d="M420 800 c-56 0 -92 -36 -92 -74 s36 -66 92 -66 56 66 56 66 -36 74 -56 74z" fill="#ff8c1a" opacity=".9"/>
    <path d="M470 800 c-56 0 -92 -36 -92 -74 s36 -66 92 -66 92 28 92 66 -36 74 -92 74z" fill="#ff7a0d"/>
    <path d="M470 660 v-30 q20 -14 34 -4" stroke="#4a2c12" stroke-width="10" fill="none"/>
    <path d="M440 706 l24 24 -24 24z M500 706 l-24 24 24 24z" fill="#2a1006"/>
    <path d="M434 762 q36 26 72 0 q-16 26 -36 26 t-36 -26z" fill="#2a1006"/>
  </g>
  <circle cx="1360" cy="770" r="110" fill="url(#glow)" opacity=".8"/>
  <g>
    <path d="M1360 810 c-42 0 -70 -28 -70 -56 s28 -50 70 -50 70 22 70 50 -28 56 -70 56z" fill="#ff9a33" opacity=".9"/>
    <path d="M1360 704 v-22 q14 -10 26 -4" stroke="#4a2c12" stroke-width="8" fill="none"/>
  </g>
</svg>
